HIERARCHY
ROOT ui
{
	 OFFSET 0 0 0
	 CHANNELS 3 XPosition YPosition Z Position
	 EndSite
	 {
	 OFFSET 0 -1 0
	 }
}
ROOT li
{
	 OFFSET 0 0 0
	 CHANNELS 3 XPosition YPosition Z Position
	 EndSite
	 {
	 OFFSET 0 -1 0
	 }
}
ROOT ul
{
	 OFFSET 0 0 0
	 CHANNELS 3 XPosition YPosition Z Position
	 EndSite
	 {
	 OFFSET 0 -1 0
	 }
}
ROOT ll
{
	 OFFSET 0 0 0
	 CHANNELS 3 XPosition YPosition Z Position
	 EndSite
	 {
	 OFFSET 0 -1 0
	 }
}
ROOT tt
{
	 OFFSET 0 0 0
	 CHANNELS 3 XPosition YPosition Z Position
	 EndSite
	 {
	 OFFSET 0 -1 0
	 }
}
ROOT tb
{
	 OFFSET 0 0 0
	 CHANNELS 3 XPosition YPosition Z Position
	 EndSite
	 {
	 OFFSET 0 -1 0
	 }
}
ROOT td
{
	 OFFSET 0 0 0
	 CHANNELS 3 XPosition YPosition Z Position
	 EndSite
	 {
	 OFFSET 0 -1 0
	 }
}
ROOT v
{
	 OFFSET 0 0 0
	 CHANNELS 3 XPosition YPosition Z Position
	 EndSite
	 {
	 OFFSET 0 -1 0
	 }
}
ROOT bn
{
	 OFFSET 0 0 0
	 CHANNELS 3 XPosition YPosition Z Position
	 EndSite
	 {
	 OFFSET 0 -1 0
	 }
}
MOTION
Frames: 32
Frame Time: 0.002
0.0450404167175293	0.006841262817382812	0		0.6134762573242187	-2.601152099609375	0		-1.00090380859375	0.02028449058532715	0		-0.5975906372070312	-2.610849853515625	0		1.6335242919921875	-1.249442138671875	0		3.366443603515625	-1.26946044921875	0		4.6187236328125	-0.791927978515625	0		5.9650263671875	0.37303887939453123	0		-0.06919184112548828	5.919515625	0		
-0.04067694473266602	0.004150667190551758	0		0.5847999877929687	-2.601133056640625	0		-1.0046223754882813	0.017157438278198243	0		-0.5342523803710938	-2.608321044921875	0		1.6159329833984375	-1.23047021484375	0		3.36675341796875	-1.269564208984375	0		4.6239853515625	-0.8000469970703125	0		5.97027294921875	0.36393548583984375	0		-0.10298518371582031	5.91355419921875	0		
-0.012444212913513183	0.003914987087249756	0		0.6110414428710937	-2.605351318359375	0		-1.0003739624023438	0.020035226821899413	0		-0.5759115600585938	-2.59319970703125	0		1.5442327880859374	-1.2201690673828125	0		3.323011962890625	-1.2673883056640625	0		4.6212158203125	-0.8020715942382812	0		5.9654658203125	0.3569387512207031	0		-0.11887552642822266	5.9025458984375	0		
-0.040273128509521486	0.004017528057098389	0		0.5922129516601562	-2.61128759765625	0		-0.9942241821289063	0.015950064659118652	0		-0.5347047729492187	-2.592460693359375	0		1.53845458984375	-1.2131614990234374	0		3.320172119140625	-1.2723746337890625	0		4.6083115234375	-0.8179927368164063	0		5.96158544921875	0.34798968505859373	0		-0.12169863128662109	5.917517578125	0		
0.042840518951416016	0.0035941851139068602	0		0.5943704833984375	-2.609285400390625	0		-1.0300885009765626	0.020128633499145506	0		-0.5905260620117188	-2.58617333984375	0		1.5127086181640625	-1.1890032958984376	0		3.333307861328125	-1.2713951416015625	0		4.61248095703125	-0.8089534912109375	0		5.9747373046875	0.3560018310546875	0		-0.11966764831542968	5.91551123046875	0		
8.830950260162354E-4	-0.0011380339860916138	0		0.59849560546875	-2.604247802734375	0		-0.9840009155273437	0.023930442810058593	0		-0.5084074096679687	-2.582551513671875	0		1.511857666015625	-1.175928955078125	0		3.298437744140625	-1.2621236572265624	0		4.617515625	-0.81687451171875	0		5.961841796875	0.364192138671875	0		-0.13671766662597656	5.9066484375	0		
0.042935928344726565	0.003740905046463013	0		0.5855680541992188	-2.60107958984375	0		-0.9839735107421875	0.024014072418212892	0		-0.591282958984375	-2.569036376953125	0		1.4969500732421874	-1.165740478515625	0		3.279464599609375	-1.26489453125	0		4.61453564453125	-0.8197149658203124	0		5.95278857421875	0.3493999633789063	0		-0.11778206634521485	5.90164404296875	0		
-0.01207351016998291	0.004158754825592041	0		0.62052099609375	-2.61311767578125	0		-0.9049900512695312	0.02273527717590332	0		-0.5262435302734375	-2.56423974609375	0		1.4909820556640625	-1.159559814453125	0		3.27042578125	-1.27268115234375	0		4.59852197265625	-0.821454833984375	0		5.94872900390625	0.340613525390625	0		-0.15287934875488282	5.8959580078125	0		
-0.0061846132278442385	-0.007698585987091064	0		0.5904913330078125	-2.612786376953125	0		-1.0250330810546875	0.024515924453735353	0		-0.5872783203125	-2.56475830078125	0		1.4869923095703126	-1.1493551025390625	0		3.24743701171875	-1.2623658447265624	0		4.60142626953125	-0.831263916015625	0		5.9576767578125	0.34078515625	0		-0.13691685485839844	5.9070478515625	0		
-0.012214808464050294	0.00453958797454834	0		0.59242236328125	-2.6105859375	0		-0.9700693359375	0.035437358856201175	0		-0.581322021484375	-2.557584228515625	0		1.4259581298828126	-1.1388284912109374	0		3.247351318359375	-1.2621427001953125	0		4.5994248046875	-0.8140252075195312	0		5.95766552734375	0.3570210876464844	0		-0.15209788513183595	5.89533154296875	0		
-0.01234956455230713	0.004778325080871582	0		0.5943023071289063	-2.6083564453125	0		-1.0061832275390625	0.03985839080810547	0		-0.5774319458007813	-2.553366943359375	0		1.4169072265625	-1.12254150390625	0		3.244193359375	-1.2668829345703125	0		4.6142294921875	-0.8258553466796875	0		5.9614892578125	0.34924978637695314	0		-0.13618679809570314	5.90648828125	0		
-0.003571969032287598	-0.004001279830932617	0		0.6180858764648437	-2.615213623046875	0		-0.8863610229492187	0.03951269149780273	0		-0.5505869140625	-2.54823779296875	0		1.3877705078125	-1.1141292724609375	0		3.2280205078125	-1.265539794921875	0		4.6010576171875	-0.8245294189453125	0		5.9482724609375	0.3415734558105469	0		-0.1524100341796875	5.8958369140625	0		
-0.012739622116088867	0.005334465026855468	0		0.5898751220703125	-2.61178369140625	0		-0.8816002807617187	0.034781269073486325	0		-0.5508131713867187	-2.5479453125	0		1.4265712890625	-1.1100458984375	0		3.192846923828125	-1.256086669921875	0		4.584830078125	-0.8261791381835938	0		5.94401953125	0.3338548889160156	0		-0.13753395080566405	5.90805029296875	0		
-0.0170049991607666	0.001664067029953003	0		0.6155829467773437	-2.61661279296875	0		-0.9668182373046875	0.04053297805786133	0		-0.5760938110351562	-2.550503662109375	0		1.37535888671875	-1.1014871826171875	0		3.17659716796875	-1.2547216796875	0		4.58351318359375	-0.8389004516601563	0		5.95277734375	0.33406948852539065	0		-0.13674127197265626	5.90635546875	0		
-0.031297075271606446	-0.0029404020309448243	0		0.5992719116210937	-2.619214111328125	0		-0.9810687866210938	0.043939014434814454	0		-0.573378662109375	-2.548189453125	0		1.3681160888671875	-1.094143310546875	0		3.208249267578125	-1.2675980224609376	0		4.58728515625	-0.829646728515625	0		5.95655517578125	0.34230569458007815	0		-0.11989071655273438	5.9165927734375	0		
0.05444207763671875	-5.0184000283479694E-5	0		0.6210112915039062	-2.609003173828125	0		-0.9373284301757813	0.04705889892578125	0		-0.5676536254882812	-2.540879638671875	0		1.3648719482421876	-1.084814453125	0		3.160029296875	-1.253063232421875	0		4.57803125	-0.8233292846679687	0		5.95628515625	0.34255487060546874	0		-0.10309847259521485	5.91383984375	0		
-0.004842308044433594	-0.002408801078796387	0		0.5886879272460938	-2.6105107421875	0		-0.8695465698242187	0.05706045150756836	0		-0.4990133056640625	-2.54988916015625	0		1.3726304931640625	-1.0755413818359374	0		3.1567177734375	-1.2567633056640626	0		4.57373486328125	-0.8260446166992188	0		5.9469384765625	0.32683908081054686	0		-0.15335615539550781	5.8974375	0		
0.04990328598022461	-0.002356555938720703	0		0.6123469848632812	-2.61730908203125	0		-0.9487979736328125	0.057824558258056644	0		-0.5743050537109375	-2.547153076171875	0		1.3313876953125	-1.06901806640625	0		3.1264765625	-1.2493316650390625	0		4.55746337890625	-0.8267091064453125	0		5.94669140625	0.3270610046386719	0		-0.15349520874023437	5.89777783203125	0		
-0.005328501224517822	-0.0017377029657363891	0		0.5840679321289063	-2.61484326171875	0		-0.8700302734375	0.057767311096191404	0		-0.5355939331054688	-2.547010009765625	0		1.3281162109375	-1.0716981201171876	0		3.139185302734375	-1.2551343994140625	0		4.5572314453125	-0.8234712524414063	0		5.94242431640625	0.31928497314453125	0		-0.13754647827148436	5.90803125	0		
-0.005539608955383301	-0.0014116569757461547	0		0.6027097778320313	-2.630630615234375	0		-0.9892383422851563	0.0587369499206543	0		-0.5879075927734375	-2.55439892578125	0		1.3339158935546875	-1.0644356689453125	0		3.128996337890625	-1.24483203125	0		4.544025390625	-0.8191824340820313	0		5.9552626953125	0.32739944458007814	0		-0.1376150665283203	5.9083603515625	0		
-0.02970940017700195	0.0030298659801483155	0		0.5955032958984375	-2.62029443359375	0		-0.8603876342773438	0.06639924621582032	0		-0.5571178588867187	-2.545231689453125	0		1.3307445068359376	-1.0551392822265624	0		3.12877294921875	-1.24459765625	0		4.55280126953125	-0.8220269165039062	0		5.9511220703125	0.33558154296875	0		-0.10361700439453125	5.91550048828125	0		
-0.005901414871215821	-7.946749925613403E-4	0		0.620239990234375	-2.62414111328125	0		-0.944576416015625	0.06316818237304687	0		-0.5693258056640625	-2.538851806640625	0		1.3214925537109374	-1.0648262939453126	0		3.11853173828125	-1.251328369140625	0		4.5396123046875	-0.8217750244140625	0		5.94591845703125	0.32774777221679685	0		-0.11769007110595703	5.90387890625	0		
-0.006047303199768066	-5.099760293960571E-4	0		0.6259511108398438	-2.63690576171875	0		-0.8717002563476562	0.06709130096435546	0		-0.49858132934570315	-2.545928466796875	0		1.30341796875	-1.045483642578125	0		3.09439892578125	-1.242004150390625	0		4.5454208984375	-0.8266444091796875	0		5.94578173828125	0.327864990234375	0		-0.1536958465576172	5.89935791015625	0		
-0.006161204814910889	-2.4542899429798125E-4	0		0.5977723999023438	-2.634509765625	0		-0.9457844848632813	0.07277606964111329	0		-0.5617835693359375	-2.54831298828125	0		1.26747216796875	-1.0080648803710937	0		3.0842119140625	-1.2487752685546876	0		4.5252451171875	-0.8343981323242188	0		5.941634765625	0.3199797668457031	0		-0.13758677673339845	5.909541015625	0		
-0.0062340087890625	-4.203999880701304E-6	0		0.6276226806640625	-2.634447265625	0		-0.85686181640625	0.07156646728515625	0		-0.5469467163085937	-2.55113623046875	0		1.312224365234375	-1.03510205078125	0		3.10315087890625	-1.2397259521484374	0		4.5192333984375	-0.8192506103515625	0		5.94165185546875	0.3350481262207031	0		-0.0854082260131836	5.9245068359375	0		
0.00273926305770874	-8.379819989204406E-4	0		0.6035635986328125	-2.627121337890625	0		-0.852816162109375	0.08378406524658204	0		-0.5410092163085938	-2.544938232421875	0		1.2793897705078126	-0.9947476196289062	0		3.070164794921875	-1.2264228515625	0		4.52817626953125	-0.822209228515625	0		5.94155908203125	0.3200914306640625	0		-0.13733860778808593	5.9100048828125	0		
0.048785037994384765	9.738799929618835E-5	0		0.6155243530273438	-2.628018310546875	0		-0.8627671508789062	0.08504780578613282	0		-0.51108984375	-2.553900390625	0		1.2733646240234375	-1.0015661010742187	0		3.05610595703125	-1.238248779296875	0		4.51119287109375	-0.8230547485351563	0		5.932609375	0.32015658569335936	0		-0.08311948394775391	5.91190087890625	0		
-0.006102938175201416	5.490229725837707E-4	0		0.59551904296875	-2.6357734375	0		-0.8626536254882813	0.08522466278076171	0		-0.5080388488769532	-2.551749755859375	0		1.273447998046875	-1.0014486694335938	0		3.06918798828125	-1.237251953125	0		4.51531298828125	-0.8180438232421875	0		5.9327294921875	0.3201443176269531	0		-0.15290818786621094	5.90043798828125	0		
0.05003656005859375	-0.00764015007019043	0		0.6216038818359375	-2.640814453125	0		-0.8624671020507813	0.08536575317382812	0		-0.5449069213867187	-2.54841552734375	0		1.22761669921875	-0.9991133422851562	0		3.04538818359375	-1.2280860595703125	0		4.50745166015625	-0.8229993896484376	0		5.9329169921875	0.3191009216308594	0		-0.13650917053222655	5.91047216796875	0		
-0.03266339492797852	8.958849906921387E-4	0		0.60577294921875	-2.64366259765625	0		-0.927142822265625	0.0978265609741211	0		-0.5406971435546875	-2.54434326171875	0		1.2308673095703124	-0.9950821533203125	0		3.05165478515625	-1.220119384765625	0		4.5117216796875	-0.8170548095703125	0		5.929224609375	0.3270466918945312	0		-0.13609312438964843	5.9115556640625	0		
0.04965484619140625	4.834960103034973E-4	0		0.6260696411132812	-2.635747802734375	0		-0.85475	0.11049192047119141	0		-0.5384253540039062	-2.5412998046875	0		1.21118408203125	-0.9909618530273437	0		3.058899169921875	-1.2281943359375	0		4.5020634765625	-0.8100677490234375	0		5.93855224609375	0.32688787841796874	0		-0.06655899810791016	5.9232177734375	0		
-0.02799088478088379	-0.0030839500427246092	0		0.5963822631835938	-2.63559619140625	0		-0.8543720703125	0.11051239776611328	0		-0.5011281433105469	-2.54449267578125	0		1.2345296630859375	-0.9921187133789062	0		3.06226708984375	-1.2242843017578124	0		4.50132275390625	-0.8281649169921875	0		5.933896484375	0.31977359008789064	0		-0.1010746841430664	5.9174140625	0		
